<svg width="890" height="365" viewBox="0 0 890 365" fill="none" xmlns="http://www.w3.org/2000/svg">
<path d="M75.1886 155.988L45.8454 137.501L49.5743 133.969L71.0889 147.541L58.6876 125.338L61.9809 122.219L83.4955 135.79L71.1116 113.571L74.8406 110.039L91.7423 140.309L87.5778 144.254L68.1492 132.012L79.3183 152.076L75.1886 155.988ZM109.18 110.311L116.916 123.218L112.635 125.785L105.527 113.928C104.976 113.008 104.248 112.307 103.343 111.823C102.451 111.332 101.496 111.093 100.478 111.106C99.4658 111.097 98.4929 111.373 97.5597 111.932C96.654 112.475 95.9594 113.199 95.4761 114.104C94.9846 114.996 94.7386 115.955 94.7381 116.981C94.7377 118.007 95.013 118.98 95.5642 119.9L102.671 131.757L98.3897 134.323L79.8812 103.446L84.1629 100.879L91.6404 113.354C91.844 112.075 92.3192 110.876 93.066 109.757C93.8129 108.638 94.7901 107.716 95.9978 106.992C97.5211 106.079 99.1293 105.619 100.822 105.611C102.515 105.604 104.1 106.006 105.576 106.819C107.065 107.624 108.267 108.788 109.18 110.311ZM109.226 100.11L113.681 97.8574L124.509 119.276L120.054 121.528L109.226 100.11ZM109.926 95.8562C109.24 96.2027 108.557 96.2702 107.877 96.0585C107.196 95.8469 106.686 95.4055 106.347 94.7344C106.014 94.0776 105.965 93.4123 106.198 92.7387C106.424 92.0508 106.873 91.5371 107.544 91.1979C108.201 90.8658 108.873 90.8127 109.561 91.0386C110.242 91.2503 110.748 91.6845 111.08 92.3413C111.419 93.0124 111.472 93.6848 111.239 94.3585C111.02 95.0249 110.583 95.5241 109.926 95.8562ZM140.107 104.861L145.169 105.285C144.785 107.114 144.007 108.784 142.835 110.295C141.679 111.799 140.207 112.944 138.42 113.729C136.398 114.617 134.324 114.908 132.197 114.601C130.085 114.288 128.148 113.479 126.386 112.174C124.632 110.847 123.289 109.121 122.356 106.997C121.648 105.386 121.274 103.759 121.234 102.116C121.187 100.459 121.43 98.8844 121.963 97.3921C122.504 95.8787 123.309 94.5289 124.378 93.3427C125.448 92.1565 126.737 91.2319 128.245 90.5691C130.032 89.784 131.871 89.4743 133.761 89.64C135.666 89.7992 137.426 90.3632 139.04 91.3319L135.928 95.3466C134.991 94.8845 134.028 94.6431 133.041 94.6227C132.047 94.5875 131.117 94.7598 130.253 95.1395C129.052 95.6672 128.105 96.4762 127.414 97.5666C126.73 98.6359 126.337 99.8307 126.236 101.151C126.142 102.45 126.373 103.73 126.926 104.99C127.473 106.235 128.267 107.266 129.308 108.085C130.343 108.889 131.485 109.4 132.735 109.62C134 109.834 135.225 109.68 136.412 109.158C137.32 108.759 138.094 108.175 138.734 107.404C139.374 106.633 139.832 105.786 140.107 104.861ZM164.576 86.7827L169.758 100.91L165.071 102.629L160.31 89.651C159.941 88.6446 159.357 87.8192 158.558 87.1749C157.775 86.5251 156.882 86.1113 155.879 85.9337C154.886 85.7356 153.879 85.8238 152.857 86.1985C151.866 86.5622 151.048 87.1434 150.404 87.9422C149.754 88.7259 149.333 89.6218 149.14 90.6298C148.948 91.6378 149.036 92.645 149.405 93.6514L154.166 106.63L149.479 108.349L137.081 74.5512L141.768 72.832L146.777 86.4863C147.216 85.2684 147.907 84.1798 148.851 83.2202C149.794 82.2607 150.927 81.5385 152.248 81.0536C153.916 80.4419 155.582 80.291 157.246 80.6007C158.911 80.9104 160.392 81.6027 161.689 82.6776C163.002 83.747 163.964 85.1154 164.576 86.7827ZM184.056 96.3202L174.953 63.9768L180.151 62.5138L201.664 81.9897L195.006 58.3329L199.811 56.9804L208.914 89.3238L203.716 90.7868L182.203 71.3109L188.861 94.9677L184.056 96.3202ZM226.193 50.6867L231.92 49.3538L224.925 69.9065L228.364 84.6797L223.501 85.8113L220.063 71.0382L204.735 55.6811L210.462 54.3482L221.259 65.1662L226.193 50.6867ZM256.217 79.59C253.985 80.0149 251.803 79.9743 249.67 79.4681C247.535 78.9463 245.573 78.0495 243.783 76.7777C242.007 75.4872 240.496 73.8854 239.253 71.9723C238.025 70.0561 237.186 67.9192 236.737 65.5616C236.288 63.2039 236.283 60.9085 236.721 58.6751C237.175 56.4388 237.992 54.402 239.173 52.5646C240.367 50.7086 241.863 49.1534 243.66 47.8992C245.454 46.6292 247.467 45.7818 249.699 45.3569C252.371 44.8482 254.949 45.0007 257.433 45.8145C259.917 46.6282 262.094 47.924 263.963 49.7017L260.046 52.8662C258.779 51.7719 257.318 50.9832 255.662 50.5003C254.007 50.0175 252.33 49.9376 250.633 50.2608C249.061 50.56 247.653 51.162 246.408 52.0668C245.163 52.9716 244.128 54.0807 243.304 55.3941C242.479 56.7076 241.916 58.1584 241.616 59.7466C241.316 61.3348 241.324 62.9619 241.641 64.628C241.961 66.3098 242.553 67.834 243.416 69.2008C244.276 70.5518 245.332 71.6944 246.585 72.6286C247.85 73.544 249.228 74.1938 250.718 74.5779C252.205 74.9462 253.727 74.9823 255.283 74.6861C257.012 74.3569 258.55 73.6651 259.896 72.6106C261.256 71.5375 262.315 70.2607 263.076 68.7804L267.891 70.3312C266.806 72.6715 265.257 74.6764 263.246 76.3461C261.232 78 258.889 79.0813 256.217 79.59ZM284.856 73.9319L280.167 40.6607L291.978 38.996C293.689 38.7548 295.283 38.8857 296.76 39.3885C298.252 39.8891 299.495 40.74 300.488 41.9411C301.495 43.1241 302.127 44.6267 302.384 46.4487C302.509 47.3359 302.489 48.2274 302.325 49.1231C302.16 50.0188 301.862 50.8283 301.431 51.5516C301 52.2749 300.431 52.8237 299.724 53.198C300.774 53.3085 301.678 53.6496 302.437 54.2213C303.21 54.7748 303.856 55.4594 304.375 56.275C304.894 57.0905 305.298 57.9545 305.589 58.867C305.895 59.7772 306.107 60.6521 306.225 61.4918C306.475 63.2663 306.271 64.9109 305.612 66.4257C304.953 67.9405 303.959 69.2035 302.631 70.2147C301.317 71.2079 299.797 71.8261 298.07 72.0695L284.856 73.9319ZM289.196 68.9574L296.991 67.8588C298.005 67.7159 298.889 67.3329 299.641 66.7098C300.409 66.0844 300.976 65.2936 301.342 64.3371C301.706 63.3648 301.809 62.3162 301.65 61.1913C301.512 60.209 301.136 59.3168 300.522 58.5146C299.906 57.6966 299.14 57.0775 298.224 56.6571C297.324 56.2346 296.367 56.0948 295.353 56.2377L287.559 57.3363L289.196 68.9574ZM286.966 53.1299L293.311 52.2356C294.61 52.0525 295.671 51.4989 296.494 50.575C297.317 49.6511 297.632 48.5 297.438 47.1216C297.23 45.6481 296.607 44.6129 295.57 44.0158C294.53 43.403 293.361 43.1881 292.062 43.3712L285.716 44.2655L286.966 53.1299ZM311.903 70.1838L309.115 46.3463L314.073 45.7665L314.369 48.2932C315.08 47.2113 316.006 46.3137 317.147 45.6004C318.288 44.887 319.557 44.4486 320.956 44.2851C321.846 44.181 322.742 44.197 323.644 44.3332L322.25 49.5705C321.603 49.4046 320.969 49.3579 320.349 49.4303C319.3 49.553 318.37 49.9276 317.557 50.5543C316.742 51.165 316.124 51.9381 315.702 52.8734C315.28 53.8088 315.131 54.8089 315.255 55.8736L316.861 69.604L311.903 70.1838ZM326.579 44.3429L331.545 43.8286L334.018 67.7009L329.052 68.2152L326.579 44.3429ZM328.751 40.6193C327.987 40.6985 327.325 40.5177 326.765 40.0771C326.205 39.6365 325.886 39.0422 325.808 38.2942C325.732 37.5621 325.923 36.923 326.382 36.3769C326.838 35.8149 327.44 35.4951 328.188 35.4177C328.921 35.3418 329.568 35.5322 330.13 35.9887C330.69 36.4293 331.008 37.0157 331.084 37.7477C331.161 38.4957 330.971 39.1428 330.513 39.6889C330.071 40.2334 329.483 40.5435 328.751 40.6193ZM354.598 29.7912L359.572 29.3711L362.602 65.2434L357.627 65.6635L357.33 62.148C356.654 63.4576 355.719 64.5482 354.524 65.4198C353.328 66.2755 351.885 66.7748 350.195 66.9175C348.457 67.0643 346.803 66.8748 345.233 66.349C343.663 65.8233 342.248 65.0356 340.987 63.9859C339.741 62.919 338.727 61.6559 337.945 60.1965C337.164 58.7371 336.7 57.1385 336.553 55.4007C336.406 53.6628 336.596 52.009 337.121 50.4392C337.646 48.8535 338.434 47.4381 339.485 46.1933C340.55 44.9311 341.813 43.9093 343.272 43.1277C344.731 42.3461 346.33 41.8819 348.068 41.7351C349.758 41.5924 351.265 41.8505 352.589 42.5094C353.912 43.1524 355.016 44.0547 355.901 45.2163L354.598 29.7912ZM349.836 62.1066C351.239 61.9881 352.438 61.5416 353.432 60.7672C354.425 59.9768 355.159 58.9675 355.633 57.7392C356.124 56.5096 356.308 55.1773 356.187 53.7425C356.065 52.2916 355.658 51.0012 354.969 49.8712C354.279 48.7412 353.38 47.8779 352.269 47.2812C351.174 46.6672 349.925 46.4195 348.522 46.538C347.135 46.6551 345.897 47.1129 344.808 47.9114C343.735 48.7085 342.906 49.7259 342.32 50.9636C341.75 52.1999 341.526 53.5356 341.647 54.9705C341.769 56.4213 342.223 57.7077 343.008 58.8296C343.808 59.9342 344.804 60.7894 345.995 61.3953C347.201 61.9839 348.481 62.221 349.836 62.1066ZM384.412 39.8807L389.396 39.5926L390.817 64.1755C390.913 65.8208 390.649 67.3585 390.026 68.7889C389.42 70.2183 388.555 71.4703 387.431 72.545C386.308 73.6356 384.996 74.5048 383.495 75.1525C382.01 75.7993 380.437 76.1707 378.775 76.2668C377.098 76.3638 375.464 76.0976 373.873 75.4684C372.283 74.8552 370.862 73.9758 369.61 72.8301C368.373 71.6836 367.423 70.3602 366.76 68.86L371.217 66.5349C371.594 67.5067 372.156 68.3557 372.903 69.0818C373.666 69.807 374.532 70.3659 375.5 70.7587C376.484 71.1505 377.479 71.3173 378.486 71.2592C379.476 71.2019 380.417 70.9872 381.309 70.6151C382.218 70.258 383.016 69.7792 383.702 69.1786C384.405 68.577 384.949 67.8724 385.335 67.0648C385.721 66.2572 385.887 65.3901 385.834 64.4637L385.6 60.4144C384.887 61.6737 383.938 62.7142 382.751 63.5361C381.564 64.342 380.155 64.792 378.526 64.8862C376.833 64.9841 375.216 64.749 373.677 64.1809C372.138 63.6128 370.768 62.7865 369.567 61.702C368.366 60.6016 367.402 59.3111 366.675 57.8305C365.948 56.35 365.535 54.7392 365.434 52.9981C365.333 51.257 365.558 49.6093 366.11 48.0549C366.66 46.4845 367.469 45.0915 368.536 43.8758C369.603 42.6442 370.868 41.6575 372.332 40.9158C373.796 40.1741 375.374 39.7542 377.067 39.6563C378.696 39.5621 380.148 39.8549 381.421 40.5345C382.694 41.1981 383.757 42.1223 384.61 43.307L384.412 39.8807ZM378.295 60.0675C379.685 59.9871 380.879 59.5655 381.876 58.8027C382.873 58.0238 383.625 57.0268 384.131 55.8115C384.638 54.5962 384.851 53.2858 384.77 51.8801C384.686 50.4425 384.316 49.1578 383.657 48.0259C383.014 46.8771 382.153 45.9813 381.074 45.3385C379.994 44.6798 378.767 44.3901 377.394 44.4695C376.052 44.5471 374.842 44.9696 373.765 45.7371C372.703 46.5037 371.879 47.4969 371.293 48.7168C370.706 49.9367 370.454 51.2654 370.537 52.703C370.62 54.1406 371.024 55.4315 371.747 56.5757C372.486 57.7189 373.427 58.6101 374.57 59.2492C375.728 59.8714 376.97 60.1441 378.295 60.0675ZM406.278 63.6049C404.071 63.6786 402.037 63.1781 400.176 62.1035C398.332 61.0284 396.834 59.5576 395.683 57.6909C394.547 55.8077 393.941 53.7068 393.864 51.3881C393.805 49.629 394.062 47.9795 394.635 46.4396C395.208 44.8836 396.018 43.5118 397.067 42.3242C398.132 41.12 399.381 40.1659 400.814 39.4617C402.247 38.7575 403.787 38.3779 405.434 38.323C407.273 38.2616 408.973 38.5892 410.534 39.3055C412.094 40.0059 413.441 41.0096 414.573 42.3165C415.704 43.6075 416.555 45.116 417.125 46.8419C417.694 48.5519 417.908 50.3858 417.765 52.3437L399.271 52.9606C399.516 54.0571 399.949 55.0432 400.57 55.919C401.207 56.7782 401.998 57.4482 402.943 57.929C403.903 58.4092 404.96 58.6381 406.111 58.6157C407.327 58.5752 408.42 58.2345 409.391 57.5938C410.378 56.9525 411.174 56.0855 411.778 54.9928L416.878 55.9993C415.99 58.1581 414.601 59.9494 412.711 61.3732C410.821 62.781 408.677 63.5249 406.278 63.6049ZM398.976 49.1524L412.6 48.6978C412.402 47.5518 411.96 46.526 411.273 45.6204C410.602 44.6982 409.77 43.9816 408.776 43.4704C407.798 42.9428 406.733 42.6981 405.582 42.7365C404.446 42.7744 403.4 43.0815 402.443 43.6577C401.501 44.2334 400.727 45.0037 400.118 45.9685C399.526 46.9168 399.145 47.9781 398.976 49.1524ZM434.312 62.3214L434.069 28.7222L439.061 28.6861L439.304 62.2852L434.312 62.3214ZM452.739 62.7844C451.476 62.6957 450.245 62.4313 449.048 61.991C447.851 61.5508 446.799 60.9596 445.892 60.2173C445.002 59.4592 444.336 58.5746 443.895 57.5635L448.155 55.7688C448.36 56.2022 448.717 56.6286 449.226 57.0481C449.751 57.4678 450.365 57.816 451.067 58.0928C451.769 58.3536 452.505 58.4867 453.273 58.492C454.025 58.4971 454.721 58.3979 455.363 58.1943C456.02 57.9748 456.558 57.6425 456.978 57.1974C457.397 56.7523 457.608 56.2177 457.613 55.5937C457.617 54.8898 457.381 54.3441 456.904 53.9568C456.443 53.5536 455.861 53.2456 455.158 53.0328C454.456 52.82 453.753 52.6151 453.05 52.4183C451.485 52.0555 450.048 51.5657 448.74 50.9487C447.449 50.3158 446.422 49.5167 445.661 48.5514C444.899 47.5702 444.524 46.3756 444.533 44.9676C444.544 43.4316 444.969 42.1065 445.809 40.9923C446.648 39.862 447.742 38.9975 449.09 38.3988C450.455 37.8001 451.905 37.5061 453.441 37.5166C455.361 37.5298 457.118 37.9499 458.712 38.7769C460.306 39.6039 461.523 40.7323 462.361 42.162L458.385 44.4868C458.148 44.0051 457.791 43.5707 457.314 43.1834C456.836 42.7961 456.295 42.4884 455.688 42.2602C455.082 42.016 454.451 41.8757 453.795 41.8392C452.979 41.8016 452.219 41.8923 451.513 42.1115C450.824 42.3148 450.269 42.647 449.85 43.1081C449.431 43.5692 449.219 44.1598 449.214 44.8798C449.209 45.5838 449.453 46.1134 449.947 46.4688C450.441 46.8082 451.063 47.0845 451.813 47.2977C452.58 47.511 453.362 47.7483 454.161 48.0098C455.581 48.4676 456.914 49.0288 458.157 49.6933C459.401 50.3419 460.403 51.1408 461.165 52.0901C461.926 53.0393 462.286 54.1938 462.245 55.5536C462.235 57.0575 461.77 58.3744 460.85 59.5041C459.946 60.6339 458.772 61.4898 457.328 62.0719C455.884 62.654 454.354 62.8915 452.739 62.7844ZM490.688 44.1465L485.651 43.9787L484.994 62.9754L480.005 62.8091L480.662 43.8125L476.848 43.6854L477.014 38.6962L480.828 38.8232L481.055 31.2906L486.044 31.4568L485.817 38.9895L490.855 39.1573L490.688 44.1465ZM516.388 49.411L515.613 64.439L510.627 64.1819L511.339 50.3763C511.395 49.3057 511.181 48.3174 510.699 47.4113C510.233 46.5061 509.574 45.7752 508.722 45.2186C507.886 44.6468 506.925 44.3329 505.838 44.2768C504.784 44.2224 503.803 44.4362 502.897 44.9182C501.992 45.3842 501.253 46.043 500.681 46.8947C500.108 47.7463 499.794 48.7074 499.739 49.778L499.027 63.5836L494.042 63.3265L495.896 27.3743L500.881 27.6314L500.132 42.1561C501.014 41.2083 502.077 40.4781 503.321 39.9654C504.565 39.4528 505.89 39.2328 507.296 39.3053C509.07 39.3968 510.662 39.9114 512.071 40.8493C513.481 41.7871 514.571 43.0049 515.343 44.5027C516.131 46.0012 516.479 47.6373 516.388 49.411ZM530.011 66.1196C527.809 65.9538 525.841 65.236 524.108 63.9663C522.39 62.6977 521.061 61.0732 520.119 59.0929C519.194 57.0978 518.819 54.9436 518.993 52.6301C519.125 50.8751 519.559 49.2632 520.296 47.7943C521.033 46.3095 521.988 45.0336 523.159 43.9665C524.348 42.8847 525.693 42.0714 527.194 41.5266C528.695 40.9818 530.267 40.7713 531.91 40.8951C533.745 41.0332 535.4 41.5429 536.874 42.4241C538.349 43.2893 539.578 44.4329 540.562 45.8548C541.548 47.2607 542.23 48.8525 542.61 50.63C542.99 52.3916 543.004 54.2378 542.65 56.1687L524.198 54.7791C524.323 55.8956 524.646 56.9228 525.169 57.8607C525.71 58.7839 526.423 59.5356 527.31 60.1159C528.213 60.6973 529.238 61.0393 530.386 61.1417C531.598 61.233 532.722 61.0128 533.757 60.481C534.808 59.9504 535.692 59.1747 536.411 58.1538L541.373 59.7067C540.255 61.7566 538.681 63.387 536.648 64.5977C534.616 65.7926 532.404 66.2999 530.011 66.1196ZM524.317 50.9612L537.911 51.985C537.838 50.8242 537.509 49.7565 536.924 48.7818C536.357 47.7925 535.607 46.9899 534.675 46.3741C533.76 45.7436 532.728 45.3851 531.579 45.2986C530.446 45.2133 529.373 45.4052 528.359 45.8744C527.36 46.3448 526.507 47.0266 525.798 47.9198C525.106 48.7984 524.612 49.8122 524.317 50.9612ZM564.345 68.727L559.79 34.3462L564.89 34.9541L568.217 60.1731L577.354 36.4399L581.858 36.9768L585.185 62.1958L594.346 38.4653L599.446 39.0733L586.985 71.4257L581.289 70.7468L578.274 47.9819L569.993 69.4003L564.345 68.727ZM606.318 74.8163C604.136 74.4793 602.23 73.6102 600.601 72.2091C598.987 70.8105 597.788 69.0873 597.004 67.0395C596.237 64.9784 596.031 62.8014 596.385 60.5086C596.654 58.7692 597.212 57.1961 598.061 55.7891C598.912 54.3663 599.963 53.1687 601.214 52.1963C602.484 51.2105 603.888 50.5046 605.427 50.0785C606.966 49.6524 608.55 49.5651 610.179 49.8167C612.361 50.1537 614.259 51.0215 615.872 52.4201C617.501 53.8212 618.699 55.5523 619.465 57.6135C620.248 59.677 620.46 61.8631 620.104 64.1718C619.838 65.8953 619.28 67.4606 618.432 68.8675C617.583 70.2745 616.524 71.4709 615.255 72.4567C614.003 73.4291 612.608 74.1284 611.069 74.5545C609.546 74.983 607.962 75.0702 606.318 74.8163ZM607.08 69.8828C608.392 70.0855 609.624 69.9195 610.775 69.3849C611.926 68.8504 612.89 68.0602 613.667 67.0145C614.462 65.9555 614.963 64.7539 615.17 63.4098C615.383 62.0341 615.262 60.7203 614.808 59.4683C614.369 58.2187 613.681 57.1734 612.742 56.3323C611.806 55.4753 610.698 54.948 609.417 54.7502C608.12 54.5499 606.888 54.7158 605.721 55.248C604.57 55.7826 603.597 56.5794 602.802 57.6384C602.023 58.7 601.529 59.9107 601.319 61.2705C601.101 62.6778 601.221 63.9996 601.678 65.2358C602.134 66.472 602.832 67.5106 603.771 68.3517C604.727 69.1795 605.83 69.6898 607.08 69.8828ZM621.677 76.6245L625.932 53.0047L630.845 53.8896L630.394 56.3933C631.389 55.5645 632.535 54.9744 633.834 54.6231C635.133 54.2718 636.475 54.221 637.861 54.4706C638.743 54.6294 639.595 54.9049 640.419 55.2971L637.565 59.9042C636.994 59.5573 636.401 59.3286 635.787 59.218C634.747 59.0308 633.748 59.119 632.788 59.4827C631.831 59.8306 631.015 60.3907 630.339 61.1632C629.664 61.9357 629.231 62.8494 629.041 63.9044L626.59 77.5095L621.677 76.6245ZM645.453 81.6031C644.23 81.2719 643.074 80.7746 641.985 80.1113C640.896 79.448 639.978 78.6645 639.232 77.761C638.504 76.8449 638.022 75.8483 637.784 74.7711L642.311 73.8337C642.429 74.2986 642.697 74.786 643.115 75.296C643.549 75.8092 644.084 76.2695 644.719 76.6768C645.358 77.0685 646.053 77.3411 646.806 77.4947C647.543 77.6452 648.245 77.6825 648.914 77.6067C649.602 77.5185 650.194 77.2965 650.691 76.9407C651.188 76.585 651.499 76.1015 651.624 75.4901C651.765 74.8003 651.639 74.2193 651.245 73.747C650.871 73.2623 650.359 72.8476 649.711 72.503C649.063 72.1584 648.413 71.8216 647.762 71.4926C646.296 70.8341 644.981 70.0758 643.817 69.2176C642.672 68.347 641.82 67.3645 641.259 66.2703C640.702 65.1604 640.564 63.9157 640.846 62.5361C641.153 61.0312 641.826 59.8132 642.865 58.8823C643.908 57.9357 645.148 57.299 646.587 56.9721C648.041 56.6484 649.52 56.6402 651.025 56.9475C652.907 57.3316 654.549 58.0834 655.954 59.2029C657.358 60.3225 658.333 61.6647 658.879 63.2296L654.529 64.7419C654.39 64.2236 654.124 63.7283 653.73 63.256C653.337 62.7838 652.864 62.3771 652.314 62.036C651.766 61.6792 651.174 61.4196 650.537 61.257C649.744 61.0624 648.981 61.0044 648.246 61.0831C647.53 61.1493 646.922 61.368 646.422 61.7395C645.921 62.1109 645.599 62.6493 645.455 63.3547C645.314 64.0445 645.452 64.6114 645.867 65.0555C646.286 65.484 646.843 65.8753 647.538 66.2295C648.249 66.5869 648.971 66.9711 649.703 67.3819C651.009 68.1057 652.208 68.9138 653.299 69.8062C654.394 70.6829 655.223 71.6606 655.787 72.7391C656.35 73.8177 656.48 75.02 656.177 76.3461C655.876 77.8197 655.165 79.0218 654.045 79.9524C652.939 80.8862 651.622 81.4991 650.093 81.7911C648.564 82.0831 647.017 82.0204 645.453 81.6031ZM675.024 68.1756L670.113 67.0433L665.819 85.56L660.955 84.4385L665.248 65.9218L661.53 65.0645L662.651 60.2001L666.37 61.0574L668.04 53.7086L672.904 54.8302L671.234 62.1789L676.146 63.3112L675.024 68.1756ZM702.666 75.4811L697.807 74.1416L692.732 92.4596L687.92 91.1328L692.995 72.8148L689.316 71.8006L690.643 66.9882L694.321 68.0024L696.301 60.731L701.114 62.0577L699.134 69.3291L703.993 70.6686L702.666 75.4811ZM710.458 98.5038C708.353 97.8376 706.602 96.6877 705.206 95.0543C703.825 93.4257 702.903 91.5396 702.44 89.396C701.998 87.2421 702.126 85.0591 702.826 82.8473C703.357 81.1693 704.15 79.6999 705.203 78.4391C706.262 77.1629 707.483 76.1399 708.868 75.3699C710.273 74.5894 711.769 74.1062 713.355 73.9201C714.941 73.734 716.52 73.8896 718.091 74.3869C720.196 75.0532 721.939 76.2006 723.32 77.8292C724.716 79.4626 725.635 81.3563 726.078 83.5103C726.536 85.6691 726.413 87.8621 725.708 90.0892C725.181 91.7519 724.391 93.2137 723.338 94.4746C722.284 95.7354 721.055 96.7561 719.65 97.5365C718.265 98.3065 716.78 98.7845 715.194 98.9706C713.623 99.1615 712.044 99.0059 710.458 98.5038ZM711.964 93.7445C713.23 94.1452 714.473 94.1693 715.692 93.8168C716.911 93.4642 717.984 92.8305 718.912 91.9157C719.859 90.9904 720.538 89.8795 720.948 88.5829C721.368 87.2558 721.45 85.9389 721.192 84.6322C720.949 83.3304 720.428 82.1921 719.629 81.2176C718.835 80.2277 717.82 79.5373 716.584 79.1462C715.334 78.7503 714.091 78.7262 712.856 79.074C711.637 79.4265 710.554 80.0654 709.607 80.9907C708.674 81.9208 708.001 83.0417 707.586 84.3536C707.156 85.7112 707.072 87.0358 707.335 88.3272C707.598 89.6186 708.128 90.7516 708.928 91.7262C709.747 92.6903 710.759 93.3631 711.964 93.7445ZM735.608 106.468L748.431 75.4112L759.456 79.9635C761.054 80.623 762.361 81.5437 763.379 82.7256C764.412 83.9137 765.052 85.2772 765.299 86.8161C765.568 88.3463 765.351 89.9618 764.649 91.6625C764.307 92.4907 763.838 93.2491 763.242 93.9378C762.646 94.6265 761.979 95.1733 761.24 95.5781C760.502 95.983 759.733 96.1676 758.934 96.132C759.783 96.7594 760.39 97.512 760.755 98.3896C761.14 99.2585 761.35 100.176 761.384 101.142C761.418 102.108 761.328 103.058 761.116 103.992C760.918 104.931 760.658 105.793 760.334 106.577C759.65 108.233 758.64 109.547 757.304 110.519C755.968 111.491 754.472 112.076 752.815 112.274C751.178 112.464 749.554 112.226 747.942 111.561L735.608 106.468ZM741.871 104.38L749.147 107.384C750.094 107.775 751.049 107.893 752.013 107.737C752.993 107.588 753.883 107.193 754.683 106.554C755.489 105.901 756.109 105.049 756.543 103.999C756.922 103.082 757.05 102.122 756.927 101.119C756.81 100.102 756.464 99.18 755.888 98.3535C755.327 97.5332 754.573 96.9276 753.626 96.5368L746.35 93.5325L741.871 104.38ZM747.971 89.606L753.894 92.0516C755.107 92.5523 756.302 92.6131 757.48 92.2339C758.658 91.8547 759.512 91.0218 760.044 89.7352C760.611 88.3598 760.6 87.1518 760.008 86.1113C759.422 85.0559 758.523 84.2779 757.311 83.7772L751.388 81.3316L747.971 89.606ZM770.669 95.165L775.17 97.3242L764.789 118.963L760.289 116.804L770.669 95.165ZM774.468 93.1277C773.776 92.7955 773.306 92.2951 773.059 91.6264C772.812 90.9578 772.851 90.2844 773.176 89.6064C773.494 88.9428 773.992 88.4982 774.668 88.2724C775.351 88.0322 776.032 88.0748 776.71 88.4C777.373 88.7184 777.825 89.2191 778.065 89.9022C778.312 90.5708 778.277 91.237 777.958 91.9006C777.633 92.5786 777.132 93.0305 776.456 93.2562C775.794 93.4889 775.132 93.446 774.468 93.1277ZM787.017 131.144L781.982 128.347L781.763 116.584L776.147 118.736L773.443 123.603L769.08 121.179L786.563 89.7091L790.927 92.1334L779.912 111.959L792.903 106.959L798.61 110.129L786.712 114.694L787.017 131.144ZM795.444 138.24C793.656 136.944 792.357 135.301 791.548 133.31C790.751 131.329 790.471 129.249 790.708 127.069C790.967 124.885 791.777 122.854 793.139 120.976C794.173 119.551 795.388 118.406 796.785 117.542C798.192 116.665 799.674 116.079 801.231 115.786C802.811 115.488 804.382 115.501 805.946 115.825C807.51 116.148 808.959 116.794 810.293 117.761C811.783 118.841 812.924 120.143 813.716 121.667C814.518 123.177 814.965 124.796 815.057 126.522C815.158 128.236 814.904 129.949 814.295 131.662C813.695 133.361 812.738 134.94 811.424 136.398L796.444 125.536C795.964 126.552 795.701 127.596 795.654 128.669C795.63 129.738 795.843 130.753 796.294 131.712C796.757 132.681 797.451 133.51 798.374 134.199C799.358 134.913 800.431 135.315 801.591 135.405C802.764 135.504 803.924 135.308 805.071 134.816L808.481 138.74C806.454 139.9 804.258 140.462 801.892 140.426C799.536 140.378 797.387 139.649 795.444 138.24ZM798.548 122.348L809.584 130.35C810.131 129.324 810.411 128.242 810.424 127.106C810.46 125.966 810.243 124.889 809.772 123.876C809.324 122.859 808.633 122.013 807.701 121.336C806.781 120.67 805.766 120.27 804.657 120.137C803.56 120.014 802.476 120.147 801.404 120.535C800.354 120.92 799.402 121.525 798.548 122.348ZM818.89 143.59C820.164 142.422 821.63 141.665 823.287 141.319C824.955 140.984 826.609 141.095 828.249 141.654C829.164 141.988 830.101 142.04 831.062 141.81C832.036 141.57 832.911 141.092 833.69 140.379C834.433 139.698 834.938 138.899 835.204 137.982C835.493 137.066 835.534 136.139 835.325 135.201C835.129 134.253 834.69 133.407 834.009 132.664C833.339 131.933 832.54 131.428 831.612 131.15C830.696 130.861 829.764 130.814 828.815 131.011C827.889 131.208 827.055 131.647 826.312 132.329L822.939 128.648C824.354 127.351 825.954 126.515 827.737 126.14C829.542 125.765 831.328 125.843 833.094 126.373C834.871 126.915 836.403 127.887 837.689 129.291C838.997 130.718 839.838 132.335 840.213 134.14C840.587 135.946 840.504 137.726 839.963 139.48C839.445 141.236 838.478 142.762 837.063 144.059C835.612 145.389 833.949 146.262 832.073 146.679C830.221 147.096 828.396 147 826.599 146.389C825.852 146.119 825.091 146.057 824.314 146.205C823.548 146.364 822.865 146.719 822.263 147.27L818.89 143.59ZM812.289 153.189C811.792 152.646 811.559 152.013 811.59 151.29C811.634 150.555 811.927 149.94 812.469 149.442C813 148.956 813.621 148.734 814.333 148.776C815.056 148.808 815.666 149.095 816.164 149.637C816.65 150.168 816.878 150.795 816.846 151.519C816.826 152.231 816.551 152.831 816.02 153.317C815.478 153.814 814.839 154.053 814.104 154.032C813.38 154.001 812.775 153.719 812.289 153.189Z" fill="black"/>
<path d="M75.4809 184.45C75.4809 184.45 292.761 97.7496 438.446 96.4638C584.13 95.1779 813.481 184.45 813.481 184.45" stroke="black" stroke-width="4"/>
<g clip-path="url(#clip0_6_84)">
<path d="M232.031 97.5353C229.407 98.2384 229.012 98.3912 228.861 98.7578C228.624 99.3415 228.729 99.633 229.313 99.9691C229.757 100.228 230.081 100.19 232.074 99.6558C233.648 99.2341 234.414 99.1097 234.592 99.2476C234.893 99.4824 236.261 101.286 236.328 101.535C236.353 101.63 232.222 102.814 227.148 104.173L217.918 106.647L217.312 105.971C216.976 105.597 216.687 105.25 216.674 105.202C216.661 105.154 217.568 104.749 218.686 104.303C220.971 103.39 221.721 102.743 221.001 102.318C220.677 102.125 219.956 102.253 216.791 103.058C214.192 103.72 212.923 104.12 212.812 104.312C212.722 104.466 212.774 104.932 212.924 105.348C213.162 106.015 213.325 106.389 213.935 106.143L214.856 105.768L216.723 107.781L214.442 114.769C211.456 114.683 208.899 115.161 206.309 116.84C205.096 117.779 203.533 119.677 202.923 120.951C202.13 122.611 201.773 124.907 202.005 126.853C202.031 127.068 202.065 127.283 202.105 127.494L202.486 128.918C203.86 132.872 207.656 135.897 211.909 136.154C213.883 136.271 213.925 136.27 215.803 135.696C217.209 135.266 217.859 134.945 218.956 134.138C220.554 132.959 221.201 132.046 222.52 129.505C223.859 126.929 223.419 124.508 223.324 123.868C223.465 123.764 224.999 123.298 226.736 122.832L229.894 121.986L230.35 123.569C230.604 124.439 230.845 125.575 230.905 125.766C230.991 126.033 230.848 125.903 230.194 126.131C229.456 126.386 229.375 126.472 229.533 126.841C229.676 127.176 229.869 127.235 230.504 127.12C230.94 127.04 231.92 126.602 232.159 126.468L230.924 121.648L231.813 119.621C232.319 118.452 232.772 117.388 232.828 117.256C232.882 117.124 233.14 116.528 233.396 115.931C233.654 115.335 234.852 112.543 236.063 109.726C237.273 106.912 238.325 104.59 238.404 104.569C238.482 104.548 238.701 104.707 238.884 104.92C239.996 106.229 240.644 107.124 240.891 107.674C241.135 108.218 241.113 108.341 240.703 108.637C239.995 109.148 238.462 112.009 238.149 113.399C237.762 115.128 237.761 117.205 238.148 118.649C238.719 120.781 241.095 123.916 242.951 124.99C248.002 127.913 253.846 126.737 257.252 122.111C258.404 120.359 259.212 118.247 259.305 116.131C259.353 114.596 258.611 111.613 257.918 110.533C255.179 106.265 250.387 104.27 245.906 105.524L242.687 106.513L240.965 104.202C237.613 99.7107 235.922 97.5267 235.48 97.1314C235.038 96.736 234.994 96.7412 232.031 97.5353ZM219.791 108.277L227.854 106.116C234.623 104.303 235.926 104.005 235.988 104.237C236.046 104.454 234.587 108.069 233.122 111.335C233.028 111.546 232.667 112.478 232.261 113.378L229.998 118.381L229.302 115.808C229.815 115.658 230.855 115.388 230.65 114.739C230.442 114.091 229.049 114.657 228.058 114.967L229.165 118.693L219.791 108.277ZM218.083 110.014C218.202 109.982 218.94 110.624 219.728 111.438C220.515 112.255 222.721 114.51 224.628 116.449C226.532 118.388 228.099 120.09 228.009 120.114L222.639 121.485C221.301 118.794 219.055 116.953 216.529 115.372L218.083 110.014ZM246.506 107.562C248.424 107.133 248.961 107.093 250.075 107.291C251.73 107.584 254.151 108.988 255.24 110.291C255.957 111.148 256.423 111.434 257.055 113.689C257.944 115.905 257.038 118.256 255.986 120.292C254.423 122.907 251.56 124.568 248.642 124.546C244.254 124.511 240.477 121.25 240.037 117.117C239.792 114.805 240.053 113.397 241.052 111.622C242.213 109.556 242.5 109.468 243.511 110.875C243.759 111.22 244.27 111.898 244.653 112.382C245.036 112.865 245.935 114.038 246.646 114.986C248.108 116.933 248.744 117.295 249.268 116.481C249.624 115.533 248.809 114.5 247.821 113.311C247.319 112.782 244.41 108.673 244.331 108.379C244.675 107.781 245.836 107.713 246.506 107.562ZM214.081 117.177C213.266 120.337 210.95 125.985 211.54 126.463C212.156 126.96 212.944 126.528 216.954 125.453L221.216 124.311C222.367 130.356 216.692 132.987 214.352 133.529C210.511 134.422 205.717 132.577 204.323 127.213C202.94 121.904 207.629 116.716 214.081 117.177ZM216.089 117.59C217.819 118.487 219.507 119.373 220.501 122.096L214.152 123.895L216.089 117.59Z" fill="black"/>
</g>
<path d="M645.822 87.9088C645.155 88.2099 644.504 88.7271 644.07 89.302C643.427 90.1483 643.113 91.249 643.208 92.3287C643.239 92.7011 643.478 93.4822 643.665 93.8336C644.392 95.1923 645.82 96.0585 647.404 96.1102C647.963 96.1269 648.258 96.0836 648.862 95.8991C649.465 95.7146 649.734 95.5856 650.188 95.2592C651.274 94.4749 651.972 93.2099 652.031 91.9189C652.051 91.4407 652.003 91.0668 651.848 90.5513C651.687 90.0112 651.572 89.7681 651.289 89.3623C650.316 87.9684 648.618 87.2849 646.879 87.5822C646.577 87.6344 646.099 87.7839 645.822 87.9088Z" fill="black"/>
<path d="M635.094 97.5526C634.863 97.6635 634.574 97.9428 634.449 98.1752C634.36 98.3397 631.437 106.398 631.246 106.999C631.206 107.129 631.173 107.346 631.17 107.501C631.165 107.734 631.182 107.832 631.273 108.13C631.366 108.446 631.395 108.508 631.548 108.715C631.948 109.263 632.499 109.527 633.082 109.459C633.491 109.408 633.917 109.11 634.113 108.732C634.169 108.624 634.837 106.795 635.598 104.667L636.981 100.794L638.324 100.384L639.666 99.9699L639.634 100.07C639.615 100.129 638.263 103.926 636.631 108.511L633.664 116.851L629.981 117.98L626.302 119.112L626.121 119.257C625.875 119.46 625.706 119.676 625.552 119.987C624.894 121.337 625.761 123.186 627.181 123.462C627.653 123.552 627.331 123.637 632.188 122.152C636.885 120.716 636.861 120.724 637.31 120.415C637.65 120.184 638 119.809 638.136 119.526C638.173 119.452 638.73 117.988 639.375 116.27C640.023 114.552 640.561 113.124 640.576 113.096C640.596 113.053 641.211 113.418 643.684 114.933C645.384 115.971 646.777 116.841 646.784 116.866C646.793 116.893 647.042 119.225 647.338 122.049C647.727 125.738 647.901 127.273 647.954 127.491C648.23 128.622 649.193 129.417 650.208 129.354C651.19 129.292 651.943 128.392 651.949 127.264C651.949 127.144 651.665 124.383 651.319 121.126C650.97 117.87 650.656 114.878 650.616 114.478C650.554 113.841 650.529 113.704 650.423 113.348C650.239 112.745 649.968 112.292 649.592 111.974C649.471 111.871 646.571 110.021 644.136 108.494L643.911 108.356L645.211 104.716C645.926 102.715 646.511 101.073 646.512 101.065C646.515 101.062 647.377 101.605 648.429 102.271C649.483 102.941 650.436 103.533 650.546 103.587C650.792 103.709 651.193 103.774 651.453 103.735C651.908 103.663 652.331 103.343 652.611 102.859C652.823 102.489 655.765 95.7178 655.82 95.4734C655.899 95.1142 655.884 94.8476 655.753 94.4319C655.672 94.1654 655.61 94.0169 655.53 93.8972C655.229 93.4433 654.789 93.1425 654.307 93.0621C654.037 93.014 654.031 93.0159 653.685 93.1215C653.371 93.221 653.318 93.2438 653.183 93.3655C653.1 93.4411 652.988 93.5625 652.934 93.6359C652.877 93.7102 652.275 95.0365 651.593 96.5915C650.91 98.1433 650.34 99.4128 650.33 99.4126C650.317 99.4132 648.881 98.5093 647.131 97.4063C645.323 96.2642 643.868 95.3659 643.752 95.3211C643.638 95.2754 643.458 95.2268 643.349 95.2065C642.905 95.1343 643.179 95.0641 639.045 96.3214C636.967 96.9533 635.19 97.5067 635.094 97.5526Z" fill="black"/>
<defs>
<clipPath id="clip0_6_84">
<rect width="58.5643" height="32.7206" fill="white" transform="translate(196.62 107.024) rotate(-15)"/>
</clipPath>
</defs>
</svg>
